HIERARCHY
ROOT Hips
{
	OFFSET 0.000000 0.000000 0.000000
	CHANNELS 6 Xposition Yposition Zposition Zrotation Yrotation Xrotation 
	JOINT LHipJoint
	{
		OFFSET 0.000000 0.000000 0.000000
		CHANNELS 3 Zrotation Yrotation Xrotation
		JOINT LeftUpLeg
		{
			OFFSET 1.363060 -1.794630 0.839290
			CHANNELS 3 Zrotation Yrotation Xrotation
			JOINT LeftLeg
			{
				OFFSET 2.448110 -6.726130 0.000000
				CHANNELS 3 Zrotation Yrotation Xrotation
				JOINT LeftFoot
				{
					OFFSET 2.562200 -7.039590 0.000000
					CHANNELS 3 Zrotation Yrotation Xrotation
					JOINT LeftToeBase
					{
						OFFSET 0.157640 -0.433110 2.322550
						CHANNELS 3 Zrotation Yrotation Xrotation
						End Site
						{
							OFFSET 0.000000 0.000000 0.000000
						}
					}
				}
			}
		}
	}
	JOINT RHipJoint
	{
		OFFSET 0.000000 0.000000 0.000000
		CHANNELS 3 Zrotation Yrotation Xrotation
		JOINT RightUpLeg
		{
			OFFSET -1.305520 -1.794630 0.839290
			CHANNELS 3 Zrotation Yrotation Xrotation
			JOINT RightLeg
			{
				OFFSET -2.542530 -6.985550 0.000000
				CHANNELS 3 Zrotation Yrotation Xrotation
				JOINT RightFoot
				{
					OFFSET -2.568260 -7.056230 0.000000
					CHANNELS 3 Zrotation Yrotation Xrotation
					JOINT RightToeBase
					{
						OFFSET -0.164730 -0.452590 2.363150
						CHANNELS 3 Zrotation Yrotation Xrotation
						End Site
						{
							OFFSET 0.000000 0.000000 0.000000
						}
					}
				}
			}
		}
	}
	JOINT LowerBack
	{
		OFFSET 0.000000 0.000000 0.000000
		CHANNELS 3 Zrotation Yrotation Xrotation
		JOINT Spine
		{
			OFFSET 0.028270 2.035590 -0.193380
			CHANNELS 3 Zrotation Yrotation Xrotation
			JOINT Spine1
			{
				OFFSET 0.056720 2.048850 -0.042750
				CHANNELS 3 Zrotation Yrotation Xrotation
				JOINT Neck
				{
					OFFSET 0.000000 0.000000 0.000000
					CHANNELS 3 Zrotation Yrotation Xrotation
					JOINT Neck1
					{
						OFFSET -0.054170 1.746240 0.172020
						CHANNELS 3 Zrotation Yrotation Xrotation
						JOINT Head
						{
							OFFSET 0.104070 1.761360 -0.123970
							CHANNELS 3 Zrotation Yrotation Xrotation
							End Site
							{
								OFFSET 0.000000 0.000000 0.000000
							}
						}
					}
				}
				JOINT LeftShoulder
				{
					OFFSET 0.000000 0.000000 0.000000
					CHANNELS 3 Zrotation Yrotation Xrotation
					JOINT LeftArm
					{
						OFFSET 3.362410 1.200890 -0.311210
						CHANNELS 3 Zrotation Yrotation Xrotation
						JOINT LeftForeArm
						{
							OFFSET 4.983000 -0.000000 -0.000000
							CHANNELS 3 Zrotation Yrotation Xrotation
							JOINT LeftHand
							{
								OFFSET 3.483560 -0.000000 -0.000000
								CHANNELS 3 Zrotation Yrotation Xrotation
								JOINT LeftFingerBase
								{
									OFFSET 0.000000 0.000000 0.000000
									CHANNELS 3 Zrotation Yrotation Xrotation
									JOINT LeftHandIndex1
									{
										OFFSET 0.715260 -0.000000 -0.000000
										CHANNELS 3 Zrotation Yrotation Xrotation
										End Site
										{
											OFFSET 0.000000 0.000000 0.000000
										}
									}
								}
								JOINT LThumb
								{
									OFFSET 0.000000 0.000000 0.000000
									CHANNELS 3 Zrotation Yrotation Xrotation
									End Site
									{
										OFFSET 0.000000 0.000000 0.000000
									}
								}
							}
						}
					}
				}
				JOINT RightShoulder
				{
					OFFSET 0.000000 0.000000 0.000000
					CHANNELS 3 Zrotation Yrotation Xrotation
					JOINT RightArm
					{
						OFFSET -3.136600 1.374050 -0.404650
						CHANNELS 3 Zrotation Yrotation Xrotation
						JOINT RightForeArm
						{
							OFFSET -5.241900 -0.000000 -0.000000
							CHANNELS 3 Zrotation Yrotation Xrotation
							JOINT RightHand
							{
								OFFSET -3.444170 -0.000000 -0.000000
								CHANNELS 3 Zrotation Yrotation Xrotation
								JOINT RightFingerBase
								{
									OFFSET 0.000000 0.000000 0.000000
									CHANNELS 3 Zrotation Yrotation Xrotation
									JOINT RightHandIndex1
									{
										OFFSET -0.622530 -0.000000 -0.000000
										CHANNELS 3 Zrotation Yrotation Xrotation
										End Site
										{
											OFFSET 0.000000 0.000000 0.000000
										}
									}
								}
								JOINT RThumb
								{
									OFFSET 0.000000 0.000000 0.000000
									CHANNELS 3 Zrotation Yrotation Xrotation
									End Site
									{
										OFFSET 0.000000 0.000000 0.000000
									}
								}
							}
						}
					}
				}
			}
		}
	}
}
MOTION
Frames: 12
Frame Time: 0.033333
-0.025783 17.360298 -0.025783 0.277496 -22.948155 4.218263 0.091252 11.725319 14.706850 -15.971548 -25.805471 -12.072541 34.288192 -29.045911 -23.985850 -18.915696 2.186805 84.103094 0.000000 0.000000 0.000000 1.719217 -30.219062 -14.480433 49.223467 10.705579 -1.017126 -27.570748 3.472001 36.305745 0.210169 9.083477 -17.445475 0.000000 0.000000 0.000000 -2.816801 6.125938 5.686546 -5.185649 5.120067 13.562450 7.009265 4.958396 -14.941062 12.853636 -0.954465 -11.414362 -2.635513 -0.246020 -7.414831 0.000000 0.000000 0.000000 -3.313420 13.947278 17.265902 -78.816006 -5.688975 -28.620120 -143.101695 -68.803802 179.358063 6.514667 -5.444094 -0.330547 6.593117 -5.398176 -0.000000 0.000000 0.000000 0.000000 0.000000 0.000000 0.000000 -1.253086 -14.085915 3.096844 57.220001 12.273349 16.753356 48.177415 58.088526 0.219056 1.658822 7.369748 0.109187 1.657138 7.373197 0.000000 0.000000 0.000000 0.000000 0.000000 0.000000 0.000000 
-0.022267 17.386341 0.126834 0.360450 -22.725695 4.038839 1.216082 11.354393 14.100367 -18.094946 -25.870614 -10.352913 34.109813 -29.286558 -23.151837 -18.625841 1.585243 82.875985 0.000000 0.000000 0.000000 0.913376 -29.427408 -14.758510 48.221010 9.720138 -0.577153 -26.065395 2.457123 36.188511 0.244810 9.163313 -18.894663 0.000000 0.000000 0.000000 -3.017722 6.006180 6.410387 -5.150128 5.010740 12.335741 6.965371 4.827086 -14.046706 12.601896 -0.956407 -10.962811 -2.552114 -0.223374 -7.111443 0.000000 0.000000 0.000000 -2.891991 13.548988 17.471401 -79.072974 -5.836408 -28.629633 -143.128212 -69.000455 179.393391 6.524328 -5.568612 -0.312267 6.599184 -5.525020 -0.000000 0.000000 0.000000 0.000000 0.000000 0.000000 0.000000 -1.508232 -13.954724 3.017205 57.787702 12.421143 16.813869 48.457837 58.634055 0.211572 1.609902 7.190615 0.105467 1.608194 7.193924 0.000000 0.000000 0.000000 0.000000 0.000000 0.000000 0.000000 
-0.016483 17.414203 0.278839 0.426542 -22.430311 3.855225 2.295823 10.977449 13.439888 -20.148074 -25.810985 -8.657555 33.736594 -29.468325 -22.306580 -18.180122 1.104195 81.729312 0.000000 0.000000 0.000000 0.123817 -28.530974 -15.016133 47.126022 8.721152 -0.142301 -24.461146 1.389267 35.981978 0.296196 9.189789 -20.273329 0.000000 0.000000 0.000000 -3.200430 5.864571 7.136289 -5.080930 4.882244 11.148076 6.907065 4.679623 -13.169895 12.337729 -0.957029 -10.528412 -2.461356 -0.201107 -6.797002 0.000000 0.000000 0.000000 -2.466051 13.142154 17.673453 -79.330862 -5.986437 -28.631592 -143.154178 -69.202053 179.430017 6.526147 -5.692800 -0.293336 6.597290 -5.651564 -0.000000 0.000000 0.000000 0.000000 0.000000 0.000000 0.000000 -1.776652 -13.837036 2.928483 58.359152 12.570845 16.876421 48.746100 59.178472 0.204397 1.562952 7.005095 0.101902 1.561252 7.008264 0.000000 0.000000 0.000000 0.000000 0.000000 0.000000 0.000000 
-0.008478 17.443436 0.429829 0.321127 -21.345194 3.292823 3.493005 10.372374 12.774505 -22.209103 -25.482746 -6.608565 33.005250 -29.602679 -21.640323 -17.474838 0.843876 80.918197 0.000000 0.000000 0.000000 -1.102937 -26.413700 -16.327956 45.564021 6.149218 1.497807 -22.067803 -0.579219 34.938348 0.637492 8.593490 -21.864810 0.000000 0.000000 0.000000 -3.174601 5.312397 8.512714 -4.909932 4.376190 9.916608 6.371857 4.238939 -12.720431 12.524602 -0.933133 -9.938674 -2.161792 -0.149878 -6.457219 0.000000 0.000000 0.000000 -1.467996 13.043046 17.987664 -79.558062 -5.950336 -28.610679 -143.084446 -69.361379 179.470022 6.521317 -5.822573 -0.272702 6.588445 -5.783756 -0.000000 0.000000 0.000000 0.000000 0.000000 0.000000 0.000000 -3.638465 -14.715908 1.662811 60.206626 15.079966 10.499219 54.463925 46.073879 0.109781 1.632274 6.835602 0.054596 1.627452 6.838243 0.000000 0.000000 0.000000 0.000000 0.000000 0.000000 0.000000 
0.001183 17.473634 0.579441 0.182418 -20.045237 2.696586 4.620177 9.668539 12.016577 -24.144746 -25.007533 -4.555142 32.099108 -29.679993 -20.969207 -16.664659 0.699676 80.190770 0.000000 0.000000 0.000000 -2.325497 -23.925246 -17.696222 43.732353 3.379312 3.297848 -19.334226 -2.682812 33.526000 0.986193 7.894077 -23.343479 0.000000 0.000000 0.000000 -3.098141 4.692182 9.955695 -4.705734 3.807870 8.698813 5.883901 3.768478 -12.740244 12.654191 -0.926688 -8.969791 -1.912947 -0.110859 -5.998323 0.000000 0.000000 0.000000 -0.422255 12.847832 18.562402 -79.806043 -5.693888 -28.601650 -143.037885 -69.529604 179.510613 6.511284 -5.951978 -0.251781 6.574358 -5.915571 -0.000000 0.000000 0.000000 0.000000 0.000000 0.000000 0.000000 -5.456380 -15.958897 -0.618480 61.606735 18.510367 5.290307 57.342727 29.321108 0.012879 1.510586 6.239091 0.006215 1.504169 6.241241 0.000000 0.000000 0.000000 0.000000 0.000000 0.000000 0.000000 
0.013640 17.504796 0.728567 0.044245 -18.824137 2.225529 5.626170 8.971404 11.164373 -25.900358 -24.452828 -2.666856 31.098979 -29.681533 -20.238225 -15.810064 0.640590 79.464937 0.000000 0.000000 0.000000 -3.363989 -21.562407 -18.680009 41.781775 0.976809 4.810150 -16.449408 -4.578071 31.958469 1.238553 7.348508 -24.678523 0.000000 0.000000 0.000000 -3.082122 4.184052 11.193651 -4.291024 3.360337 7.431525 5.599095 3.388169 -12.386572 12.485020 -0.954814 -8.188490 -1.888781 -0.107598 -5.482511 0.000000 0.000000 0.000000 0.176114 12.401879 19.024437 -80.052118 -5.568606 -28.620088 -143.027571 -69.736044 179.550742 6.498387 -6.077792 -0.231097 6.557405 -6.043785 -0.000000 0.000000 0.000000 0.000000 0.000000 0.000000 0.000000 -6.288775 -16.507654 -1.955979 62.358103 20.266088 3.941629 58.048219 21.892401 -0.020899 1.322290 5.388006 -0.010598 1.316749 5.389780 0.000000 0.000000 0.000000 0.000000 0.000000 0.000000 0.000000 
0.027810 17.536121 0.876220 -0.084352 -17.485773 1.750327 6.529427 8.221104 10.229871 -27.519574 -23.779529 -0.830170 29.962005 -29.609874 -19.495883 -14.885087 0.685495 78.810478 0.000000 0.000000 0.000000 -4.313117 -18.997008 -19.595029 39.609568 -1.448951 6.391322 -13.327510 -6.426023 30.087767 1.486229 6.754469 -25.852246 0.000000 0.000000 0.000000 -3.034614 3.658210 12.411485 -3.871270 2.908425 6.194029 5.323620 2.998376 -12.168690 12.261083 -0.985123 -7.286853 -1.878956 -0.108172 -4.931204 0.000000 0.000000 0.000000 0.764883 11.839398 19.572213 -80.301170 -5.399216 -28.647555 -143.026944 -69.958485 179.591676 6.477696 -6.201598 -0.210016 6.532587 -6.170001 0.000000 0.000000 0.000000 0.000000 0.000000 0.000000 0.000000 -7.046099 -17.107184 -3.594060 63.194740 22.212434 3.083269 58.451776 13.748845 -0.041107 1.146689 4.413002 -0.020637 1.142613 4.414398 -0.000000 0.000000 0.000000 0.000000 0.000000 0.000000 0.000000 
0.042878 17.567255 1.022383 -0.186671 -16.041680 1.318109 7.313280 7.406747 9.186818 -28.996590 -23.007878 0.929708 28.716360 -29.461002 -18.730974 -13.911240 0.819998 78.208224 0.000000 0.000000 0.000000 -5.145102 -16.294754 -20.419767 37.239753 -3.840330 8.001171 -10.005108 -8.165997 27.944970 1.725013 6.118408 -26.846102 0.000000 0.000000 0.000000 -2.960300 3.187199 13.679677 -3.339495 2.547262 4.683649 4.725771 2.661632 -11.576214 11.118411 -0.570183 -5.453896 -0.164795 0.178720 -6.571344 0.000000 0.000000 0.000000 1.422308 10.916616 20.104040 -80.478163 -5.459772 -28.673460 -143.093710 -70.216433 179.633705 6.434538 -6.315438 -0.188394 6.485216 -6.286312 0.000000 0.000000 0.000000 0.000000 0.000000 0.000000 0.000000 -7.253768 -18.002503 -5.245256 64.014390 23.895675 2.618916 60.000740 10.248898 0.425930 -1.871115 -8.866489 0.213693 -1.901723 -8.867571 -0.000000 0.000000 0.000000 0.000000 0.000000 0.000000 0.000000 
0.058862 17.597915 1.166794 -0.256821 -14.541191 0.902835 7.979406 6.558826 8.077617 -30.330337 -22.150481 2.606692 27.383692 -29.232810 -17.946005 -12.900818 1.033947 77.652037 0.000000 0.000000 0.000000 -5.834930 -13.512481 -21.091861 34.700629 -6.151099 9.628075 -6.551555 -9.728852 25.577069 1.952419 5.452359 -27.640718 0.000000 0.000000 0.000000 -2.877705 2.754309 14.869075 -2.813177 2.236267 3.279660 4.208356 2.361798 -11.157160 9.957194 -0.166032 -3.603367 1.382183 0.469335 -8.062659 0.000000 0.000000 0.000000 1.995439 9.837400 20.714406 -80.658795 -5.497067 -28.682868 -143.162854 -70.490901 179.677293 6.379514 -6.426328 -0.165993 6.425825 -6.399726 0.000000 0.000000 0.000000 0.000000 0.000000 0.000000 0.000000 -7.269040 -18.847616 -7.097276 65.053336 25.597326 2.820985 60.989387 6.397031 1.668204 -4.162941 -21.436930 0.850021 -4.433208 -21.433098 0.000000 0.000000 0.000000 0.000000 0.000000 0.000000 0.000000 
0.075451 17.628073 1.309862 -0.345056 -12.978353 0.783207 8.440792 5.720602 7.197619 -31.141669 -21.759145 3.590632 25.951108 -29.069677 -16.868470 -12.043617 1.019916 76.655873 0.000000 0.000000 0.000000 -6.541892 -10.482093 -20.932169 30.986929 -8.690060 11.086513 -0.343926 -11.248886 21.104809 2.120776 5.026000 -29.165904 0.000000 0.000000 0.000000 -2.604317 2.230658 15.179649 -2.666716 1.827268 3.148946 4.181866 1.947075 -10.881056 9.836053 -0.147597 -3.541841 1.468358 0.493845 -8.347974 0.000000 0.000000 0.000000 1.968555 9.429887 20.847560 -80.808108 -5.509944 -28.518830 -143.124040 -70.639464 179.758236 6.151961 -6.488444 -0.124512 6.189773 -6.466698 0.000000 0.000000 0.000000 0.000000 0.000000 0.000000 0.000000 -7.268911 -19.100095 -6.808735 64.741579 25.275047 2.929956 62.452925 9.700476 1.490259 -3.857389 -20.253959 0.757923 -4.088141 -20.251292 0.000000 0.000000 0.000000 0.000000 0.000000 0.000000 0.000000 
0.091823 17.657392 1.450911 -0.277631 -11.412753 0.803953 8.719592 4.858945 6.202346 -31.881052 -21.337507 4.425253 24.459572 -28.807527 -15.746395 -11.162081 1.064076 75.655316 0.000000 0.000000 0.000000 -6.821190 -7.386034 -20.338930 26.875338 -10.827774 12.329530 6.192267 -12.202910 16.342179 2.368397 4.339257 -30.266790 0.000000 0.000000 0.000000 -2.458669 1.728016 15.299885 -2.550957 1.410093 3.022698 4.171605 1.515747 -10.572965 9.735120 -0.137596 -3.532434 1.514548 0.511264 -8.607166 0.000000 0.000000 0.000000 1.927675 9.008246 20.961340 -80.953233 -5.535813 -28.347478 -143.083321 -70.795516 179.841070 5.899312 -6.538987 -0.082122 5.928497 -6.522111 0.000000 0.000000 0.000000 0.000000 0.000000 0.000000 0.000000 -7.259590 -19.326983 -6.429333 64.474100 24.834702 3.102448 63.828527 13.354753 1.261132 -3.475631 -18.467387 0.639659 -3.656343 -18.465999 0.000000 0.000000 0.000000 0.000000 0.000000 0.000000 0.000000 
0.107955 17.685741 1.589878 -0.081543 -10.883082 0.708651 8.926141 4.621097 5.643727 -32.553457 -20.880669 4.949942 23.002797 -28.400901 -14.594320 -10.269788 1.146769 74.600392 0.000000 0.000000 0.000000 -6.713612 -6.306926 -20.076914 25.497777 -11.143263 12.625913 7.197139 -12.534737 16.000095 2.409148 4.130144 -30.310578 0.000000 0.000000 0.000000 -2.542061 1.609170 15.399967 -2.540430 1.311678 2.926442 4.183552 1.343291 -9.736961 9.683933 -0.144649 -3.938652 1.496447 0.526109 -8.972979 0.000000 0.000000 0.000000 1.811022 8.730324 20.809845 -81.087260 -5.793206 -28.188178 -142.990639 -70.935618 179.926252 5.628750 -6.581156 -0.038585 5.649121 -6.569175 0.000000 0.000000 0.000000 0.000000 0.000000 0.000000 0.000000 -7.144261 -19.066895 -4.825732 64.023177 23.089355 4.014075 65.737374 22.393324 0.224715 -0.970931 -5.588502 0.112497 -0.980652 -5.589735 0.000000 0.000000 0.000000 0.000000 0.000000 0.000000 0.000000 
